<svg width="285" height="76" viewBox="0 0 285 76" fill="none" xmlns="http://www.w3.org/2000/svg">
<g filter="url(#filter0_d_2408_1304)">
<path d="M90.0444 41.9359L81.1244 32.8959L90.0444 23.8959H96.5244L87.5244 32.8959L96.5244 41.9359H90.0444ZM114.744 47.7359C111.917 47.7359 109.49 47.1359 107.464 45.9359C105.437 44.7092 103.877 43.0159 102.784 40.8559C101.69 38.6692 101.144 36.1492 101.144 33.2959C101.144 30.4425 101.69 27.9225 102.784 25.7359C103.877 23.5492 105.437 21.8425 107.464 20.6159C109.49 19.3892 111.917 18.7759 114.744 18.7759C118.104 18.7759 120.85 19.6159 122.984 21.2959C125.144 22.9492 126.49 25.2825 127.024 28.2959H121.384C121.037 26.7759 120.29 25.5892 119.144 24.7359C118.024 23.8559 116.53 23.4159 114.664 23.4159C112.077 23.4159 110.05 24.2959 108.584 26.0559C107.117 27.8159 106.384 30.2292 106.384 33.2959C106.384 36.3625 107.117 38.7759 108.584 40.5359C110.05 42.2692 112.077 43.1359 114.664 43.1359C116.53 43.1359 118.024 42.7359 119.144 41.9359C120.29 41.1092 121.037 39.9759 121.384 38.5359H127.024C126.49 41.4159 125.144 43.6692 122.984 45.2959C120.85 46.9225 118.104 47.7359 114.744 47.7359ZM131.436 47.2559V18.4559H136.556V30.4559C137.223 29.3625 138.116 28.5092 139.236 27.8959C140.383 27.2559 141.689 26.9359 143.156 26.9359C145.609 26.9359 147.503 27.7092 148.836 29.2559C150.196 30.8025 150.876 33.0692 150.876 36.0559V47.2559H145.796V36.5359C145.796 34.8292 145.449 33.5225 144.756 32.6159C144.089 31.7092 143.023 31.2559 141.556 31.2559C140.116 31.2559 138.916 31.7625 137.956 32.7759C137.023 33.7892 136.556 35.2025 136.556 37.0159V47.2559H131.436ZM162.612 47.7359C160.905 47.7359 159.505 47.4692 158.412 46.9359C157.319 46.3759 156.505 45.6425 155.972 44.7359C155.439 43.8292 155.172 42.8292 155.172 41.7359C155.172 39.8959 155.892 38.4025 157.332 37.2559C158.772 36.1092 160.932 35.5359 163.812 35.5359H168.852V35.0559C168.852 33.6959 168.465 32.6959 167.692 32.0559C166.919 31.4159 165.959 31.0959 164.812 31.0959C163.772 31.0959 162.865 31.3492 162.092 31.8559C161.319 32.3359 160.839 33.0559 160.652 34.0159H155.652C155.785 32.5759 156.265 31.3225 157.092 30.2559C157.945 29.1892 159.039 28.3759 160.372 27.8159C161.705 27.2292 163.199 26.9359 164.852 26.9359C167.679 26.9359 169.905 27.6425 171.532 29.0559C173.159 30.4692 173.972 32.4692 173.972 35.0559V47.2559H169.612L169.132 44.0559C168.545 45.1225 167.719 46.0025 166.652 46.6959C165.612 47.3892 164.265 47.7359 162.612 47.7359ZM163.772 43.7359C165.239 43.7359 166.372 43.2559 167.172 42.2959C167.999 41.3359 168.519 40.1492 168.732 38.7359H164.372C163.012 38.7359 162.039 38.9892 161.452 39.4959C160.865 39.9759 160.572 40.5759 160.572 41.2959C160.572 42.0692 160.865 42.6692 161.452 43.0959C162.039 43.5225 162.812 43.7359 163.772 43.7359ZM187.424 47.2559C185.344 47.2559 183.678 46.7492 182.424 45.7359C181.171 44.7225 180.544 42.9225 180.544 40.3359V31.6959H177.144V27.4159H180.544L181.144 22.0959H185.664V27.4159H191.024V31.6959H185.664V40.3759C185.664 41.3359 185.864 42.0025 186.264 42.3759C186.691 42.7225 187.411 42.8959 188.424 42.8959H190.904V47.2559H187.424ZM193.74 51.6959L203.74 16.1759H208.74L198.7 51.6959H193.74ZM212.456 41.9359L221.416 32.8959L212.456 23.8959H218.896L227.856 32.8959L218.896 41.9359H212.456Z" fill="#8D8BA7"/>
</g>
<g filter="url(#filter1_d_2408_1304)">
<ellipse cx="36.5" cy="34.0681" rx="32.5" ry="33.5681" fill="#8D8BA7"/>
</g>
<path d="M18.7827 41.9359L9.86266 32.8959L18.7827 23.8959H25.2627L16.2627 32.8959L25.2627 41.9359H18.7827ZM29.002 51.6959L39.002 16.1759H44.002L33.962 51.6959H29.002ZM47.718 41.9359L56.678 32.8959L47.718 23.8959H54.158L63.118 32.8959L54.158 41.9359H47.718Z" fill="white"/>
<defs>
<filter id="filter0_d_2408_1304" x="77.124" y="16.1758" width="154.732" height="43.52" filterUnits="userSpaceOnUse" color-interpolation-filters="sRGB">
<feFlood flood-opacity="0" result="BackgroundImageFix"/>
<feColorMatrix in="SourceAlpha" type="matrix" values="0 0 0 0 0 0 0 0 0 0 0 0 0 0 0 0 0 0 127 0" result="hardAlpha"/>
<feOffset dy="4"/>
<feGaussianBlur stdDeviation="2"/>
<feComposite in2="hardAlpha" operator="out"/>
<feColorMatrix type="matrix" values="0 0 0 0 0 0 0 0 0 0 0 0 0 0 0 0 0 0 0.25 0"/>
<feBlend mode="normal" in2="BackgroundImageFix" result="effect1_dropShadow_2408_1304"/>
<feBlend mode="normal" in="SourceGraphic" in2="effect1_dropShadow_2408_1304" result="shape"/>
</filter>
<filter id="filter1_d_2408_1304" x="0" y="0.5" width="73" height="75.1362" filterUnits="userSpaceOnUse" color-interpolation-filters="sRGB">
<feFlood flood-opacity="0" result="BackgroundImageFix"/>
<feColorMatrix in="SourceAlpha" type="matrix" values="0 0 0 0 0 0 0 0 0 0 0 0 0 0 0 0 0 0 127 0" result="hardAlpha"/>
<feOffset dy="4"/>
<feGaussianBlur stdDeviation="2"/>
<feComposite in2="hardAlpha" operator="out"/>
<feColorMatrix type="matrix" values="0 0 0 0 0 0 0 0 0 0 0 0 0 0 0 0 0 0 0.25 0"/>
<feBlend mode="normal" in2="BackgroundImageFix" result="effect1_dropShadow_2408_1304"/>
<feBlend mode="normal" in="SourceGraphic" in2="effect1_dropShadow_2408_1304" result="shape"/>
</filter>
</defs>
</svg>
