<svg width="126" height="136" viewBox="0 0 126 136" fill="none" xmlns="http://www.w3.org/2000/svg">
<g filter="url(#filter0_d_2355_1456)">
<path d="M6 8H116V90.6468L63.5 127.083L6 90.6468V8Z" fill="#8D8BA7"/>
<path d="M33.6133 43.3057H26.3672V38.7354H33.6133C34.7331 38.7354 35.6445 38.5531 36.3477 38.1885C37.0508 37.8109 37.5651 37.29 37.8906 36.626C38.2161 35.9619 38.3789 35.2132 38.3789 34.3799C38.3789 33.5335 38.2161 32.7458 37.8906 32.0166C37.5651 31.2874 37.0508 30.7015 36.3477 30.2588C35.6445 29.8161 34.7331 29.5947 33.6133 29.5947H28.3984V53.4424H22.5391V25.0049H33.6133C35.8398 25.0049 37.7474 25.4085 39.3359 26.2158C40.9375 27.0101 42.1615 28.1104 43.0078 29.5166C43.8542 30.9229 44.2773 32.5309 44.2773 34.3408C44.2773 36.1768 43.8542 37.7653 43.0078 39.1064C42.1615 40.4476 40.9375 41.4827 39.3359 42.2119C37.7474 42.9411 35.8398 43.3057 33.6133 43.3057ZM46.7969 43.0908V42.6807C46.7969 41.1312 47.0182 39.7054 47.4609 38.4033C47.9036 37.0882 48.5482 35.9489 49.3945 34.9854C50.2409 34.0218 51.2826 33.2731 52.5195 32.7393C53.7565 32.1924 55.1758 31.9189 56.7773 31.9189C58.3789 31.9189 59.8047 32.1924 61.0547 32.7393C62.3047 33.2731 63.3529 34.0218 64.1992 34.9854C65.0586 35.9489 65.7096 37.0882 66.1523 38.4033C66.5951 39.7054 66.8164 41.1312 66.8164 42.6807V43.0908C66.8164 44.6273 66.5951 46.0531 66.1523 47.3682C65.7096 48.6702 65.0586 49.8096 64.1992 50.7861C63.3529 51.7497 62.3112 52.4984 61.0742 53.0322C59.8372 53.5661 58.418 53.833 56.8164 53.833C55.2148 53.833 53.7891 53.5661 52.5391 53.0322C51.3021 52.4984 50.2539 51.7497 49.3945 50.7861C48.5482 49.8096 47.9036 48.6702 47.4609 47.3682C47.0182 46.0531 46.7969 44.6273 46.7969 43.0908ZM52.4219 42.6807V43.0908C52.4219 43.9762 52.5 44.8031 52.6562 45.5713C52.8125 46.3395 53.0599 47.0166 53.3984 47.6025C53.75 48.1755 54.2057 48.6247 54.7656 48.9502C55.3255 49.2757 56.0091 49.4385 56.8164 49.4385C57.5977 49.4385 58.2682 49.2757 58.8281 48.9502C59.388 48.6247 59.8372 48.1755 60.1758 47.6025C60.5143 47.0166 60.7617 46.3395 60.918 45.5713C61.0872 44.8031 61.1719 43.9762 61.1719 43.0908V42.6807C61.1719 41.8213 61.0872 41.014 60.918 40.2588C60.7617 39.4906 60.5078 38.8135 60.1562 38.2275C59.8177 37.6286 59.3685 37.1598 58.8086 36.8213C58.2487 36.4827 57.5716 36.3135 56.7773 36.3135C55.9831 36.3135 55.306 36.4827 54.7461 36.8213C54.1992 37.1598 53.75 37.6286 53.3984 38.2275C53.0599 38.8135 52.8125 39.4906 52.6562 40.2588C52.5 41.014 52.4219 41.8213 52.4219 42.6807ZM81.6992 47.6025C81.6992 47.1989 81.582 46.8343 81.3477 46.5088C81.1133 46.1833 80.6771 45.8838 80.0391 45.6104C79.4141 45.3239 78.5091 45.0635 77.3242 44.8291C76.2565 44.5947 75.2604 44.3018 74.3359 43.9502C73.4245 43.5856 72.6302 43.1494 71.9531 42.6416C71.2891 42.1338 70.7682 41.5348 70.3906 40.8447C70.013 40.1416 69.8242 39.3408 69.8242 38.4424C69.8242 37.557 70.013 36.7236 70.3906 35.9424C70.7812 35.1611 71.3346 34.471 72.0508 33.8721C72.7799 33.2601 73.6654 32.7848 74.707 32.4463C75.7617 32.0947 76.9466 31.9189 78.2617 31.9189C80.0977 31.9189 81.6732 32.2119 82.9883 32.7979C84.3164 33.3838 85.332 34.1911 86.0352 35.2197C86.7513 36.2354 87.1094 37.3942 87.1094 38.6963H81.4844C81.4844 38.1494 81.3672 37.6611 81.1328 37.2314C80.9115 36.7887 80.5599 36.4437 80.0781 36.1963C79.6094 35.9359 78.9974 35.8057 78.2422 35.8057C77.6172 35.8057 77.0768 35.9163 76.6211 36.1377C76.1654 36.346 75.8138 36.6325 75.5664 36.9971C75.332 37.3486 75.2148 37.7393 75.2148 38.1689C75.2148 38.4945 75.2799 38.7874 75.4102 39.0479C75.5534 39.2952 75.7812 39.5231 76.0938 39.7314C76.4062 39.9398 76.8099 40.1351 77.3047 40.3174C77.8125 40.4867 78.4375 40.6429 79.1797 40.7861C80.7031 41.0986 82.0638 41.5088 83.2617 42.0166C84.4596 42.5114 85.4102 43.1885 86.1133 44.0479C86.8164 44.8942 87.168 46.0075 87.168 47.3877C87.168 48.3252 86.9596 49.1846 86.543 49.9658C86.1263 50.7471 85.5273 51.4307 84.7461 52.0166C83.9648 52.5895 83.0273 53.0387 81.9336 53.3643C80.8529 53.6768 79.6354 53.833 78.2812 53.833C76.3151 53.833 74.6484 53.4814 73.2812 52.7783C71.9271 52.0752 70.8984 51.1833 70.1953 50.1025C69.5052 49.0088 69.1602 47.889 69.1602 46.7432H74.4922C74.5182 47.5114 74.7135 48.1299 75.0781 48.5986C75.4557 49.0674 75.931 49.4059 76.5039 49.6143C77.0898 49.8226 77.7214 49.9268 78.3984 49.9268C79.1276 49.9268 79.7331 49.8291 80.2148 49.6338C80.6966 49.4255 81.0612 49.152 81.3086 48.8135C81.569 48.4619 81.6992 48.0583 81.6992 47.6025ZM101.172 32.3096V36.2939H88.8672V32.3096H101.172ZM91.9141 27.0947H97.5391V47.0752C97.5391 47.6872 97.6172 48.1559 97.7734 48.4814C97.9427 48.807 98.1901 49.0348 98.5156 49.165C98.8411 49.2822 99.2513 49.3408 99.7461 49.3408C100.098 49.3408 100.41 49.3278 100.684 49.3018C100.97 49.2627 101.211 49.2236 101.406 49.1846L101.426 53.3252C100.944 53.4814 100.423 53.6051 99.8633 53.6963C99.3034 53.7874 98.6849 53.833 98.0078 53.833C96.7708 53.833 95.6901 53.6312 94.7656 53.2275C93.8542 52.8109 93.151 52.1468 92.6562 51.2354C92.1615 50.3239 91.9141 49.126 91.9141 47.6416V27.0947Z" fill="white"/>
</g>
<defs>
<filter id="filter0_d_2355_1456" x="0" y="0" width="126" height="135.083" filterUnits="userSpaceOnUse" color-interpolation-filters="sRGB">
<feFlood flood-opacity="0" result="BackgroundImageFix"/>
<feColorMatrix in="SourceAlpha" type="matrix" values="0 0 0 0 0 0 0 0 0 0 0 0 0 0 0 0 0 0 127 0" result="hardAlpha"/>
<feOffset dx="2"/>
<feGaussianBlur stdDeviation="4"/>
<feComposite in2="hardAlpha" operator="out"/>
<feColorMatrix type="matrix" values="0 0 0 0 0 0 0 0 0 0 0 0 0 0 0 0 0 0 0.25 0"/>
<feBlend mode="normal" in2="BackgroundImageFix" result="effect1_dropShadow_2355_1456"/>
<feBlend mode="normal" in="SourceGraphic" in2="effect1_dropShadow_2355_1456" result="shape"/>
</filter>
</defs>
</svg>
