<svg width="229" height="214" viewBox="0 0 229 214" fill="none" xmlns="http://www.w3.org/2000/svg">
<g filter="url(#filter0_d_2637_912)">
<g filter="url(#filter1_d_2637_912)">
<path d="M4 135.051V4H216V135.051L115.5 201.5L4 135.051Z" fill="#8D8BA7"/>
</g>
<path d="M46.9883 72.4666L54.6836 78.5603L50.9922 81.7634L43.4141 75.6697L46.9883 72.4666ZM54.8789 61.8025V63.1501C54.8789 65.3116 54.5859 67.2517 54 68.9705C53.4271 70.6892 52.6003 72.1541 51.5195 73.365C50.4388 74.5629 49.1628 75.4809 47.6914 76.1189C46.2201 76.7569 44.5859 77.0759 42.7891 77.0759C41.0052 77.0759 39.3711 76.7569 37.8867 76.1189C36.4023 75.4809 35.1198 74.5629 34.0391 73.365C32.9583 72.1541 32.1185 70.6892 31.5195 68.9705C30.9336 67.2517 30.6406 65.3116 30.6406 63.1501V61.8025C30.6406 59.628 30.9336 57.6879 31.5195 55.9822C32.1185 54.2634 32.9518 52.7986 34.0195 51.5876C35.0872 50.3767 36.3633 49.4522 37.8477 48.8142C39.332 48.1762 40.9661 47.8572 42.75 47.8572C44.5469 47.8572 46.181 48.1762 47.6523 48.8142C49.1367 49.4522 50.4193 50.3767 51.5 51.5876C52.5807 52.7986 53.4141 54.2634 54 55.9822C54.5859 57.6879 54.8789 59.628 54.8789 61.8025ZM48.9609 63.1501V61.7634C48.9609 60.253 48.8177 58.9249 48.5312 57.7791C48.2578 56.6332 47.8542 55.6697 47.3203 54.8884C46.7995 54.1072 46.1549 53.5212 45.3867 53.1306C44.6185 52.727 43.7396 52.5251 42.75 52.5251C41.7604 52.5251 40.8815 52.727 40.1133 53.1306C39.3451 53.5212 38.7005 54.1072 38.1797 54.8884C37.6589 55.6697 37.2617 56.6332 36.9883 57.7791C36.7148 58.9249 36.5781 60.253 36.5781 61.7634V63.1501C36.5781 64.6475 36.7148 65.9757 36.9883 67.1345C37.2617 68.2804 37.6589 69.2504 38.1797 70.0447C38.7135 70.8259 39.3646 71.4184 40.1328 71.822C40.9141 72.2257 41.7995 72.4275 42.7891 72.4275C43.7786 72.4275 44.651 72.2257 45.4062 71.822C46.1745 71.4184 46.819 70.8259 47.3398 70.0447C47.8737 69.2504 48.2773 68.2804 48.5508 67.1345C48.8242 65.9757 48.9609 64.6475 48.9609 63.1501ZM71.2656 71.6267V55.5525H76.8906V76.6853H71.5977L71.2656 71.6267ZM71.8906 67.2908L73.5508 67.2517C73.5508 68.658 73.388 69.9666 73.0625 71.1775C72.737 72.3754 72.2487 73.4171 71.5977 74.3025C70.9466 75.1749 70.1263 75.8585 69.1367 76.3533C68.1471 76.835 66.9818 77.0759 65.6406 77.0759C64.612 77.0759 63.6615 76.9327 62.7891 76.6462C61.9297 76.3468 61.1875 75.8845 60.5625 75.2595C59.9505 74.6215 59.4688 73.8077 59.1172 72.8181C58.7786 71.8155 58.6094 70.6111 58.6094 69.2048V55.5525H64.2344V69.2439C64.2344 69.8689 64.306 70.3962 64.4492 70.8259C64.6055 71.2556 64.8203 71.6072 65.0938 71.8806C65.3672 72.1541 65.6862 72.3494 66.0508 72.4666C66.4284 72.5837 66.8451 72.6423 67.3008 72.6423C68.4596 72.6423 69.3711 72.408 70.0352 71.9392C70.7122 71.4705 71.1875 70.8324 71.4609 70.0251C71.7474 69.2048 71.8906 68.2934 71.8906 67.2908ZM90.9141 77.0759C89.2734 77.0759 87.8021 76.8155 86.5 76.2947C85.1979 75.7608 84.0911 75.0251 83.1797 74.0876C82.2812 73.1501 81.5911 72.0629 81.1094 70.8259C80.6276 69.5759 80.3867 68.2478 80.3867 66.8416V66.0603C80.3867 64.4587 80.6146 62.9939 81.0703 61.6658C81.526 60.3376 82.1771 59.1853 83.0234 58.2087C83.8828 57.2322 84.9245 56.4835 86.1484 55.9626C87.3724 55.4288 88.7526 55.1619 90.2891 55.1619C91.7865 55.1619 93.1146 55.4093 94.2734 55.9041C95.4323 56.3988 96.4023 57.102 97.1836 58.0134C97.9779 58.9249 98.5768 60.0186 98.9805 61.2947C99.3841 62.5577 99.5859 63.9639 99.5859 65.5134V67.8572H82.7891V64.1072H94.0586V63.6775C94.0586 62.8962 93.9154 62.1996 93.6289 61.5876C93.3555 60.9626 92.9388 60.4679 92.3789 60.1033C91.819 59.7387 91.1029 59.5564 90.2305 59.5564C89.4883 59.5564 88.8503 59.7192 88.3164 60.0447C87.7826 60.3702 87.3464 60.8259 87.0078 61.4119C86.6823 61.9978 86.4349 62.6879 86.2656 63.4822C86.1094 64.2634 86.0312 65.1228 86.0312 66.0603V66.8416C86.0312 67.6879 86.1484 68.4692 86.3828 69.1853C86.6302 69.9014 86.9753 70.5199 87.418 71.0408C87.8737 71.5616 88.4206 71.9653 89.0586 72.2517C89.7096 72.5382 90.4453 72.6814 91.2656 72.6814C92.2812 72.6814 93.2253 72.4861 94.0977 72.0955C94.9831 71.6918 95.7448 71.0863 96.3828 70.2791L99.1172 73.2478C98.6745 73.8858 98.069 74.4978 97.3008 75.0837C96.5456 75.6697 95.6341 76.1514 94.5664 76.5291C93.4987 76.8936 92.2812 77.0759 90.9141 77.0759ZM114.215 70.8455C114.215 70.4418 114.098 70.0772 113.863 69.7517C113.629 69.4262 113.193 69.1267 112.555 68.8533C111.93 68.5668 111.025 68.3064 109.84 68.072C108.772 67.8376 107.776 67.5447 106.852 67.1931C105.94 66.8285 105.146 66.3923 104.469 65.8845C103.805 65.3767 103.284 64.7778 102.906 64.0876C102.529 63.3845 102.34 62.5837 102.34 61.6853C102.34 60.7999 102.529 59.9666 102.906 59.1853C103.297 58.4041 103.85 57.7139 104.566 57.115C105.296 56.503 106.181 56.0278 107.223 55.6892C108.277 55.3376 109.462 55.1619 110.777 55.1619C112.613 55.1619 114.189 55.4548 115.504 56.0408C116.832 56.6267 117.848 57.434 118.551 58.4626C119.267 59.4783 119.625 60.6371 119.625 61.9392H114C114 61.3923 113.883 60.9041 113.648 60.4744C113.427 60.0317 113.076 59.6866 112.594 59.4392C112.125 59.1788 111.513 59.0486 110.758 59.0486C110.133 59.0486 109.592 59.1593 109.137 59.3806C108.681 59.5889 108.329 59.8754 108.082 60.24C107.848 60.5916 107.73 60.9822 107.73 61.4119C107.73 61.7374 107.796 62.0304 107.926 62.2908C108.069 62.5382 108.297 62.766 108.609 62.9744C108.922 63.1827 109.326 63.378 109.82 63.5603C110.328 63.7296 110.953 63.8858 111.695 64.0291C113.219 64.3416 114.579 64.7517 115.777 65.2595C116.975 65.7543 117.926 66.4314 118.629 67.2908C119.332 68.1371 119.684 69.2504 119.684 70.6306C119.684 71.5681 119.475 72.4275 119.059 73.2087C118.642 73.99 118.043 74.6736 117.262 75.2595C116.48 75.8324 115.543 76.2817 114.449 76.6072C113.368 76.9197 112.151 77.0759 110.797 77.0759C108.831 77.0759 107.164 76.7244 105.797 76.0212C104.443 75.3181 103.414 74.4262 102.711 73.3455C102.021 72.2517 101.676 71.1319 101.676 69.9861H107.008C107.034 70.7543 107.229 71.3728 107.594 71.8416C107.971 72.3103 108.447 72.6488 109.02 72.8572C109.605 73.0655 110.237 73.1697 110.914 73.1697C111.643 73.1697 112.249 73.072 112.73 72.8767C113.212 72.6684 113.577 72.3949 113.824 72.0564C114.085 71.7048 114.215 71.3012 114.215 70.8455ZM133.688 55.5525V59.5369H121.383V55.5525H133.688ZM124.43 50.3376H130.055V70.3181C130.055 70.9301 130.133 71.3988 130.289 71.7244C130.458 72.0499 130.706 72.2778 131.031 72.408C131.357 72.5251 131.767 72.5837 132.262 72.5837C132.613 72.5837 132.926 72.5707 133.199 72.5447C133.486 72.5056 133.727 72.4666 133.922 72.4275L133.941 76.5681C133.46 76.7244 132.939 76.8481 132.379 76.9392C131.819 77.0304 131.201 77.0759 130.523 77.0759C129.286 77.0759 128.206 76.8741 127.281 76.4705C126.37 76.0538 125.667 75.3897 125.172 74.4783C124.677 73.5668 124.43 72.3689 124.43 70.8845V50.3376ZM142.828 55.5525V76.6853H137.184V55.5525H142.828ZM136.832 50.0447C136.832 49.2244 137.118 48.5473 137.691 48.0134C138.264 47.4796 139.033 47.2126 139.996 47.2126C140.947 47.2126 141.708 47.4796 142.281 48.0134C142.867 48.5473 143.16 49.2244 143.16 50.0447C143.16 50.865 142.867 51.5421 142.281 52.0759C141.708 52.6098 140.947 52.8767 139.996 52.8767C139.033 52.8767 138.264 52.6098 137.691 52.0759C137.118 51.5421 136.832 50.865 136.832 50.0447ZM146.578 66.3337V65.9236C146.578 64.3741 146.799 62.9483 147.242 61.6462C147.685 60.3311 148.329 59.1918 149.176 58.2283C150.022 57.2647 151.064 56.516 152.301 55.9822C153.538 55.4353 154.957 55.1619 156.559 55.1619C158.16 55.1619 159.586 55.4353 160.836 55.9822C162.086 56.516 163.134 57.2647 163.98 58.2283C164.84 59.1918 165.491 60.3311 165.934 61.6462C166.376 62.9483 166.598 64.3741 166.598 65.9236V66.3337C166.598 67.8702 166.376 69.296 165.934 70.6111C165.491 71.9132 164.84 73.0525 163.98 74.0291C163.134 74.9926 162.092 75.7413 160.855 76.2751C159.618 76.809 158.199 77.0759 156.598 77.0759C154.996 77.0759 153.57 76.809 152.32 76.2751C151.083 75.7413 150.035 74.9926 149.176 74.0291C148.329 73.0525 147.685 71.9132 147.242 70.6111C146.799 69.296 146.578 67.8702 146.578 66.3337ZM152.203 65.9236V66.3337C152.203 67.2192 152.281 68.046 152.438 68.8142C152.594 69.5824 152.841 70.2595 153.18 70.8455C153.531 71.4184 153.987 71.8676 154.547 72.1931C155.107 72.5186 155.79 72.6814 156.598 72.6814C157.379 72.6814 158.049 72.5186 158.609 72.1931C159.169 71.8676 159.618 71.4184 159.957 70.8455C160.296 70.2595 160.543 69.5824 160.699 68.8142C160.868 68.046 160.953 67.2192 160.953 66.3337V65.9236C160.953 65.0642 160.868 64.2569 160.699 63.5017C160.543 62.7335 160.289 62.0564 159.938 61.4705C159.599 60.8715 159.15 60.4028 158.59 60.0642C158.03 59.7257 157.353 59.5564 156.559 59.5564C155.764 59.5564 155.087 59.7257 154.527 60.0642C153.98 60.4028 153.531 60.8715 153.18 61.4705C152.841 62.0564 152.594 62.7335 152.438 63.5017C152.281 64.2569 152.203 65.0642 152.203 65.9236ZM175.562 60.0642V76.6853H169.938V55.5525H175.211L175.562 60.0642ZM174.742 65.3767H173.219C173.219 63.8142 173.421 62.408 173.824 61.158C174.228 59.8949 174.794 58.8207 175.523 57.9353C176.253 57.0369 177.118 56.3533 178.121 55.8845C179.137 55.4028 180.27 55.1619 181.52 55.1619C182.509 55.1619 183.414 55.3051 184.234 55.5916C185.055 55.878 185.758 56.3337 186.344 56.9587C186.943 57.5837 187.398 58.4106 187.711 59.4392C188.036 60.4679 188.199 61.7244 188.199 63.2087V76.6853H182.535V63.1892C182.535 62.2517 182.405 61.5225 182.145 61.0017C181.884 60.4809 181.5 60.1163 180.992 59.908C180.497 59.6866 179.885 59.5759 179.156 59.5759C178.401 59.5759 177.743 59.7257 177.184 60.0251C176.637 60.3246 176.181 60.7413 175.816 61.2751C175.465 61.796 175.198 62.408 175.016 63.1111C174.833 63.8142 174.742 64.5694 174.742 65.3767Z" fill="white"/>
</g>
<defs>
<filter id="filter0_d_2637_912" x="0" y="4" width="220" height="205.5" filterUnits="userSpaceOnUse" color-interpolation-filters="sRGB">
<feFlood flood-opacity="0" result="BackgroundImageFix"/>
<feColorMatrix in="SourceAlpha" type="matrix" values="0 0 0 0 0 0 0 0 0 0 0 0 0 0 0 0 0 0 127 0" result="hardAlpha"/>
<feOffset dy="4"/>
<feGaussianBlur stdDeviation="2"/>
<feComposite in2="hardAlpha" operator="out"/>
<feColorMatrix type="matrix" values="0 0 0 0 0 0 0 0 0 0 0 0 0 0 0 0 0 0 0.25 0"/>
<feBlend mode="normal" in2="BackgroundImageFix" result="effect1_dropShadow_2637_912"/>
<feBlend mode="normal" in="SourceGraphic" in2="effect1_dropShadow_2637_912" result="shape"/>
</filter>
<filter id="filter1_d_2637_912" x="1" y="0" width="228" height="213.5" filterUnits="userSpaceOnUse" color-interpolation-filters="sRGB">
<feFlood flood-opacity="0" result="BackgroundImageFix"/>
<feColorMatrix in="SourceAlpha" type="matrix" values="0 0 0 0 0 0 0 0 0 0 0 0 0 0 0 0 0 0 127 0" result="hardAlpha"/>
<feOffset dx="5" dy="4"/>
<feGaussianBlur stdDeviation="4"/>
<feComposite in2="hardAlpha" operator="out"/>
<feColorMatrix type="matrix" values="0 0 0 0 0 0 0 0 0 0 0 0 0 0 0 0 0 0 0.25 0"/>
<feBlend mode="normal" in2="BackgroundImageFix" result="effect1_dropShadow_2637_912"/>
<feBlend mode="normal" in="SourceGraphic" in2="effect1_dropShadow_2637_912" result="shape"/>
</filter>
</defs>
</svg>
