<svg width="162" height="174" viewBox="0 0 162 174" fill="none" xmlns="http://www.w3.org/2000/svg">
<g filter="url(#filter0_d_2355_1662)">
<g filter="url(#filter1_d_2355_1662)">
<path d="M6 8H151.908V117.626L82.2699 165.955L6 117.626V8Z" fill="#8D8BA7"/>
<path d="M41.9141 48.7578C41.9141 48.25 41.8359 47.7943 41.6797 47.3906C41.5365 46.974 41.263 46.5964 40.8594 46.2578C40.4557 45.9062 39.8893 45.5612 39.1602 45.2227C38.431 44.8841 37.487 44.5326 36.3281 44.168C35.0391 43.7513 33.8151 43.2826 32.6562 42.7617C31.5104 42.2409 30.4948 41.6354 29.6094 40.9453C28.737 40.2422 28.0469 39.4284 27.5391 38.5039C27.0443 37.5794 26.7969 36.5052 26.7969 35.2812C26.7969 34.0964 27.0573 33.0221 27.5781 32.0586C28.099 31.082 28.8281 30.2487 29.7656 29.5586C30.7031 28.8555 31.8099 28.3151 33.0859 27.9375C34.375 27.5599 35.7878 27.3711 37.3242 27.3711C39.4206 27.3711 41.25 27.7487 42.8125 28.5039C44.375 29.2591 45.5859 30.2943 46.4453 31.6094C47.3177 32.9245 47.7539 34.4284 47.7539 36.1211H41.9336C41.9336 35.2878 41.7578 34.5586 41.4062 33.9336C41.0677 33.2956 40.5469 32.7943 39.8438 32.4297C39.1536 32.0651 38.2812 31.8828 37.2266 31.8828C36.2109 31.8828 35.3646 32.0391 34.6875 32.3516C34.0104 32.651 33.5026 33.0612 33.1641 33.582C32.8255 34.0898 32.6562 34.6628 32.6562 35.3008C32.6562 35.7826 32.7734 36.2188 33.0078 36.6094C33.2552 37 33.6198 37.3646 34.1016 37.7031C34.5833 38.0417 35.1758 38.3607 35.8789 38.6602C36.582 38.9596 37.3958 39.2526 38.3203 39.5391C39.8698 40.0078 41.2305 40.5352 42.4023 41.1211C43.5872 41.707 44.5768 42.3646 45.3711 43.0938C46.1654 43.8229 46.7643 44.6497 47.168 45.5742C47.5716 46.4987 47.7734 47.5469 47.7734 48.7188C47.7734 49.9557 47.5326 51.0625 47.0508 52.0391C46.569 53.0156 45.8724 53.8424 44.9609 54.5195C44.0495 55.1966 42.9622 55.7109 41.6992 56.0625C40.4362 56.4141 39.0234 56.5898 37.4609 56.5898C36.0547 56.5898 34.668 56.4076 33.3008 56.043C31.9336 55.6654 30.6901 55.099 29.5703 54.3438C28.4635 53.5885 27.5781 52.625 26.9141 51.4531C26.25 50.2812 25.918 48.8945 25.918 47.293H31.7969C31.7969 48.1784 31.9336 48.9271 32.207 49.5391C32.4805 50.151 32.8646 50.6458 33.3594 51.0234C33.8672 51.401 34.4661 51.6745 35.1562 51.8438C35.8594 52.013 36.6276 52.0977 37.4609 52.0977C38.4766 52.0977 39.3099 51.9544 39.9609 51.668C40.625 51.3815 41.1133 50.9844 41.4258 50.4766C41.7513 49.9688 41.9141 49.3958 41.9141 48.7578ZM60.1367 52.1953C60.8268 52.1953 61.4388 52.0651 61.9727 51.8047C62.5065 51.5312 62.9232 51.1536 63.2227 50.6719C63.5352 50.1771 63.6979 49.5977 63.7109 48.9336H69.0039C68.9909 50.418 68.5938 51.7396 67.8125 52.8984C67.0312 54.0443 65.9831 54.9492 64.668 55.6133C63.3529 56.2643 61.8815 56.5898 60.2539 56.5898C58.6133 56.5898 57.181 56.3164 55.957 55.7695C54.7461 55.2227 53.737 54.4674 52.9297 53.5039C52.1224 52.5273 51.5169 51.3945 51.1133 50.1055C50.7096 48.8034 50.5078 47.4102 50.5078 45.9258V45.3594C50.5078 43.862 50.7096 42.4688 51.1133 41.1797C51.5169 39.8776 52.1224 38.7448 52.9297 37.7812C53.737 36.8047 54.7461 36.043 55.957 35.4961C57.168 34.9492 58.5872 34.6758 60.2148 34.6758C61.9466 34.6758 63.4635 35.0078 64.7656 35.6719C66.0807 36.3359 67.1094 37.2865 67.8516 38.5234C68.6068 39.7474 68.9909 41.1992 69.0039 42.8789H63.7109C63.6979 42.1758 63.5482 41.5378 63.2617 40.9648C62.9883 40.3919 62.5846 39.9362 62.0508 39.5977C61.5299 39.2461 60.8854 39.0703 60.1172 39.0703C59.2969 39.0703 58.6263 39.2461 58.1055 39.5977C57.5846 39.9362 57.181 40.4049 56.8945 41.0039C56.6081 41.5898 56.4062 42.2604 56.2891 43.0156C56.1849 43.7578 56.1328 44.5391 56.1328 45.3594V45.9258C56.1328 46.7461 56.1849 47.5339 56.2891 48.2891C56.3932 49.0443 56.5885 49.7148 56.875 50.3008C57.1745 50.8867 57.5846 51.349 58.1055 51.6875C58.6263 52.026 59.3034 52.1953 60.1367 52.1953ZM77.8906 39.6758V56.1992H72.2656V35.0664H77.5586L77.8906 39.6758ZM84.2578 34.9297L84.1602 40.1445C83.8867 40.1055 83.5547 40.0729 83.1641 40.0469C82.7865 40.0078 82.4414 39.9883 82.1289 39.9883C81.3346 39.9883 80.6445 40.0924 80.0586 40.3008C79.4857 40.4961 79.0039 40.7891 78.6133 41.1797C78.2357 41.5703 77.9492 42.0456 77.7539 42.6055C77.5716 43.1654 77.4674 43.8034 77.4414 44.5195L76.3086 44.168C76.3086 42.8008 76.4453 41.5443 76.7188 40.3984C76.9922 39.2396 77.3893 38.2305 77.9102 37.3711C78.444 36.5117 79.0951 35.8477 79.8633 35.3789C80.6315 34.9102 81.5104 34.6758 82.5 34.6758C82.8125 34.6758 83.1315 34.7018 83.457 34.7539C83.7826 34.793 84.0495 34.8516 84.2578 34.9297ZM97.6562 51.4336V42.0195C97.6562 41.3424 97.5456 40.763 97.3242 40.2812C97.1029 39.7865 96.7578 39.4023 96.2891 39.1289C95.8333 38.8555 95.2409 38.7188 94.5117 38.7188C93.8867 38.7188 93.3464 38.8294 92.8906 39.0508C92.4349 39.2591 92.0833 39.5651 91.8359 39.9688C91.5885 40.3594 91.4648 40.8216 91.4648 41.3555H85.8398C85.8398 40.457 86.0482 39.6042 86.4648 38.7969C86.8815 37.9896 87.487 37.2799 88.2812 36.668C89.0755 36.043 90.0195 35.5547 91.1133 35.2031C92.2201 34.8516 93.457 34.6758 94.8242 34.6758C96.4648 34.6758 97.9232 34.9492 99.1992 35.4961C100.475 36.043 101.478 36.8633 102.207 37.957C102.949 39.0508 103.32 40.418 103.32 42.0586V51.1016C103.32 52.2604 103.392 53.2109 103.535 53.9531C103.678 54.6823 103.887 55.3203 104.16 55.8672V56.1992H98.4766C98.2031 55.6263 97.9948 54.9102 97.8516 54.0508C97.7214 53.1784 97.6562 52.306 97.6562 51.4336ZM98.3984 43.3281L98.4375 46.5117H95.293C94.5508 46.5117 93.9062 46.5964 93.3594 46.7656C92.8125 46.9349 92.3633 47.1758 92.0117 47.4883C91.6602 47.7878 91.3997 48.1393 91.2305 48.543C91.0742 48.9466 90.9961 49.3893 90.9961 49.8711C90.9961 50.3529 91.1068 50.7891 91.3281 51.1797C91.5495 51.5573 91.8685 51.8568 92.2852 52.0781C92.7018 52.2865 93.1901 52.3906 93.75 52.3906C94.5964 52.3906 95.332 52.2214 95.957 51.8828C96.582 51.5443 97.0638 51.1276 97.4023 50.6328C97.7539 50.138 97.9362 49.6693 97.9492 49.2266L99.4336 51.6094C99.2253 52.1432 98.9388 52.6966 98.5742 53.2695C98.2227 53.8424 97.7734 54.3828 97.2266 54.8906C96.6797 55.3854 96.0221 55.7956 95.2539 56.1211C94.4857 56.4336 93.5742 56.5898 92.5195 56.5898C91.1784 56.5898 89.9609 56.3229 88.8672 55.7891C87.7865 55.2422 86.9271 54.4935 86.2891 53.543C85.6641 52.5794 85.3516 51.4857 85.3516 50.2617C85.3516 49.1549 85.5599 48.1719 85.9766 47.3125C86.3932 46.4531 87.0052 45.7305 87.8125 45.1445C88.6328 44.5456 89.6549 44.0964 90.8789 43.7969C92.1029 43.4844 93.5221 43.3281 95.1367 43.3281H98.3984ZM113.281 39.1289V64.3242H107.656V35.0664H112.871L113.281 39.1289ZM126.66 45.3984V45.8086C126.66 47.3451 126.478 48.7708 126.113 50.0859C125.762 51.401 125.241 52.5469 124.551 53.5234C123.861 54.487 123.001 55.2422 121.973 55.7891C120.957 56.3229 119.785 56.5898 118.457 56.5898C117.168 56.5898 116.048 56.3294 115.098 55.8086C114.147 55.2878 113.346 54.5586 112.695 53.6211C112.057 52.6706 111.543 51.5703 111.152 50.3203C110.762 49.0703 110.462 47.7292 110.254 46.2969V45.2227C110.462 43.6862 110.762 42.2799 111.152 41.0039C111.543 39.7148 112.057 38.6016 112.695 37.6641C113.346 36.7135 114.141 35.9779 115.078 35.457C116.029 34.9362 117.142 34.6758 118.418 34.6758C119.759 34.6758 120.938 34.9297 121.953 35.4375C122.982 35.9453 123.841 36.6745 124.531 37.625C125.234 38.5755 125.762 39.7083 126.113 41.0234C126.478 42.3385 126.66 43.7969 126.66 45.3984ZM121.016 45.8086V45.3984C121.016 44.5 120.938 43.6732 120.781 42.918C120.638 42.1497 120.404 41.4792 120.078 40.9062C119.766 40.3333 119.349 39.8906 118.828 39.5781C118.32 39.2526 117.702 39.0898 116.973 39.0898C116.204 39.0898 115.547 39.2135 115 39.4609C114.466 39.7083 114.03 40.0664 113.691 40.5352C113.353 41.0039 113.099 41.5638 112.93 42.2148C112.76 42.8659 112.656 43.6016 112.617 44.4219V47.1367C112.682 48.1003 112.865 48.9661 113.164 49.7344C113.464 50.4896 113.926 51.0885 114.551 51.5312C115.176 51.974 115.996 52.1953 117.012 52.1953C117.754 52.1953 118.379 52.0326 118.887 51.707C119.395 51.3685 119.805 50.9062 120.117 50.3203C120.443 49.7344 120.671 49.0573 120.801 48.2891C120.944 47.5208 121.016 46.694 121.016 45.8086Z" fill="white"/>
</g>
</g>
<defs>
<filter id="filter0_d_2355_1662" x="0" y="0" width="161.908" height="173.955" filterUnits="userSpaceOnUse" color-interpolation-filters="sRGB">
<feFlood flood-opacity="0" result="BackgroundImageFix"/>
<feColorMatrix in="SourceAlpha" type="matrix" values="0 0 0 0 0 0 0 0 0 0 0 0 0 0 0 0 0 0 127 0" result="hardAlpha"/>
<feOffset dx="2"/>
<feGaussianBlur stdDeviation="4"/>
<feComposite in2="hardAlpha" operator="out"/>
<feColorMatrix type="matrix" values="0 0 0 0 0 0 0 0 0 0 0 0 0 0 0 0 0 0 0.25 0"/>
<feBlend mode="normal" in2="BackgroundImageFix" result="effect1_dropShadow_2355_1662"/>
<feBlend mode="normal" in="SourceGraphic" in2="effect1_dropShadow_2355_1662" result="shape"/>
</filter>
<filter id="filter1_d_2355_1662" x="2" y="8" width="153.908" height="165.955" filterUnits="userSpaceOnUse" color-interpolation-filters="sRGB">
<feFlood flood-opacity="0" result="BackgroundImageFix"/>
<feColorMatrix in="SourceAlpha" type="matrix" values="0 0 0 0 0 0 0 0 0 0 0 0 0 0 0 0 0 0 127 0" result="hardAlpha"/>
<feOffset dy="4"/>
<feGaussianBlur stdDeviation="2"/>
<feComposite in2="hardAlpha" operator="out"/>
<feColorMatrix type="matrix" values="0 0 0 0 0 0 0 0 0 0 0 0 0 0 0 0 0 0 0.25 0"/>
<feBlend mode="normal" in2="BackgroundImageFix" result="effect1_dropShadow_2355_1662"/>
<feBlend mode="normal" in="SourceGraphic" in2="effect1_dropShadow_2355_1662" result="shape"/>
</filter>
</defs>
</svg>
